<svg height="700" opacity=".4" viewBox="0 0 800 700" width="800" xmlns="http://www.w3.org/2000/svg" xmlns:xlink="http://www.w3.org/1999/xlink">
  <linearGradient id="a"><stop offset="0" stop-color="#808080" stop-opacity=".25"/><stop offset=".54" stop-color="#808080" stop-opacity=".12"/><stop offset="1" stop-color="#808080" stop-opacity=".1"/></linearGradient><linearGradient id="b" gradientUnits="userSpaceOnUse" x1="204.148" x2="204.148" xlink:href="#a" y1="516.686" y2="498.061"/><linearGradient id="c" gradientUnits="userSpaceOnUse" x1="521.899" x2="521.899" xlink:href="#a" y1="428.96" y2="413.413"/><linearGradient id="d" gradientUnits="userSpaceOnUse" x1="512.104" x2="512.104" xlink:href="#a" y1="293.392" y2="247.041"/><linearGradient id="e" gradientUnits="userSpaceOnUse" x1="218.446" x2="218.446" xlink:href="#a" y1="407.223" y2="374.88"/><linearGradient id="f" gradientTransform="matrix(.883 .47 -.47 .883 98.741 -332.271)" gradientUnits="userSpaceOnUse" x1="375.508" x2="375.508" xlink:href="#a" y1="662.21" y2="609.173"/><linearGradient id="g" gradientTransform="matrix(.883 .47 -.47 .883 98.67 -332.28)" gradientUnits="userSpaceOnUse" x1="375.539" x2="375.539" xlink:href="#a" y1="691.427" y2="615.363"/><linearGradient id="h" gradientTransform="matrix(.883 .47 -.47 .883 98.67 -332.28)" gradientUnits="userSpaceOnUse" x1="375.699" x2="375.699" xlink:href="#a" y1="618.464" y2="592.097"/><linearGradient id="i" gradientTransform="matrix(.883 .47 -.47 .883 98.67 -332.28)" gradientUnits="userSpaceOnUse" x1="367.263" x2="367.263" xlink:href="#a" y1="694.539" y2="684.842"/><linearGradient id="j" gradientTransform="matrix(.883 .47 -.47 .883 98.67 -332.28)" gradientUnits="userSpaceOnUse" x1="384.013" x2="384.013" xlink:href="#a" y1="694.539" y2="684.842"/>
  <linearGradient id="k" gradientUnits="userSpaceOnUse" x1="546.348" x2="547.329" y1="295.446" y2="321.314"><stop offset="0" stop-color="#fff"/><stop offset="1" stop-color="#dae3ed"/></linearGradient>
  <linearGradient id="l" gradientUnits="userSpaceOnUse" x1="390.508" x2="690.023" y1="120.969" y2="485.016"><stop offset="0" stop-color="#3e08d1"/><stop offset=".297" stop-color="#3e08d1"/><stop offset="1" stop-color="#5de6e8"/></linearGradient>
  <linearGradient id="m" gradientUnits="userSpaceOnUse" x1="368.716" x2="509.428" y1="68.396" y2="433.542"><stop offset="0" stop-color="#3403ad"/><stop offset=".381" stop-color="#413fd1"/><stop offset="1" stop-color="#52bfe3"/></linearGradient>
  <clipPath id="n"><path d="m420.072 184.659h30.382v38.264h-30.382z"/></clipPath>
  <clipPath id="o"><path d="m413.695 216.936h43.136v29.871h-43.136z"/></clipPath>
  <clipPath id="p"><path d="m418.326 231.928h33.872v22.656h-33.872z"/></clipPath>
  <linearGradient id="q" gradientUnits="userSpaceOnUse" x1="579.142" x2="583.696" y1="212.578" y2="347.314"><stop offset="0" stop-color="#3403ad"/><stop offset=".381" stop-color="#6f6edb"/><stop offset="1" stop-color="#a6e4ff"/></linearGradient>
  <linearGradient id="r"><stop offset="0" stop-color="#f6547f"/><stop offset="1" stop-color="#fdca9d"/></linearGradient><linearGradient id="s" gradientUnits="userSpaceOnUse" x1="313.194" x2="377.228" xlink:href="#r" y1="173.635" y2="323.367"/>
  <linearGradient id="t"><stop offset="0" stop-color="#fa5a85"/><stop offset=".005" stop-color="#fa5a85"/><stop offset="1" stop-color="#fdca9d"/></linearGradient><linearGradient id="u" gradientUnits="userSpaceOnUse" x1="352.95" x2="351.039" xlink:href="#t" y1="211.282" y2="236.45"/>
  <clipPath id="v"><path d="m322.321 224.264h65.976v40.445h-65.976z"/></clipPath>
  <clipPath id="w"><path d="m322.321 230.64h56.992v34.572h-56.992z"/></clipPath>
  <clipPath id="x"><path d="m335.958 248.598h36.374v22.432h-36.374z"/></clipPath>
  <clipPath id="y"><path d="m335.958 253.074h17.018v11.244h-17.018z"/></clipPath>
  <clipPath id="z"><path d="m335.958 263.702h36.374v22.432h-36.374z"/></clipPath>
  <clipPath id="A"><path d="m335.958 268.178h17.018v11.244h-17.018z"/></clipPath>
  <clipPath id="B"><path d="m335.958 279.14h36.374v22.432h-36.374z"/></clipPath>
  <clipPath id="C"><path d="m335.958 294.47h36.374v22.375h-36.374z"/></clipPath>
  <clipPath id="D"><path d="m335.958 298.943h17.018v11.19h-17.018z"/></clipPath><linearGradient id="E" gradientUnits="userSpaceOnUse" x1="595.689" x2="625.933" xlink:href="#r" y1="401.924" y2="503.282"/>
  <clipPath id="F"><path d="m610.276 443.214h13.486v8.952h-13.486z"/></clipPath>
  <clipPath id="G"><path d="m610.276 447.916h9.649v6.711h-9.649z"/></clipPath>
  <clipPath id="H"><path d="m610.276 459.047h13.486v8.95h-13.486z"/></clipPath>
  <clipPath id="I"><path d="m610.276 463.745h9.649v6.771h-9.649z"/></clipPath>
  <clipPath id="J"><path d="m610.276 475.27h13.486v8.95h-13.486z"/></clipPath>
  <clipPath id="K"><path d="m610.276 479.969h9.649v6.714h-9.649z"/></clipPath>
  <clipPath id="L"><path d="m610.314 491.437h13.213v7.943h-13.213z"/></clipPath>
  <clipPath id="M"><path d="m596.127 423.524h29.823v18.908h-29.823z"/></clipPath><linearGradient id="N" gradientUnits="userSpaceOnUse" x1="611.376" x2="610.658" xlink:href="#t" y1="419.79" y2="429.273"/><path
    d="m114.16 524.281c6.226.537 12.489.456 18.699-.243 68.264-7.554 161.221-5.401 236.999 41.544 104.798 64.922 269.037 9.343 341.486-20.894 55.356-23.094 84.1-79.658 66.832-132.753q-.364-1.121-.756-2.248c-10.862-31.553-32.302-56.247-58.853-69.337-23.142-11.409-56.929-35.232-71.963-81.009-6.211-18.902-14.73-36.677-25.794-52.183-29.629-41.524-91.655-103.287-198.33-102.902-18.704.091-37.267 3.234-54.958 9.303-38.972 13.285-74.171 40.281-101.012 77.701-17.126 23.877-42.793 46.06-79.537 47.876-50.995 2.525-99.661 26.267-136.169 68.52-1.053 1.215-2.093 2.437-3.132 3.673-65.003 77.39-19.854 205.405 66.488 212.952z"
    fill="transparent"/><path d="m213.464 507.37c0 5.145-4.171 9.316-9.316 9.316s-9.316-4.171-9.316-9.316 4.171-9.316 9.316-9.316 9.316 4.171 9.316 9.316z" fill="url(#b)" opacity=".7"/>
  <g fill="#fff"><path d="m157.399 325.66c0 1.902-1.541 3.443-3.443 3.443-1.901 0-3.443-1.541-3.443-3.443 0-1.901 1.542-3.442 3.443-3.442 1.902 0 3.443 1.541 3.443 3.442z"/><path d="m264.567 459.7c0 1.062-.861 1.924-1.924 1.924-1.062 0-1.924-.862-1.924-1.924 0-1.063.862-1.924 1.924-1.924 1.063 0 1.924.861 1.924 1.924z"/><path d="m682.438 449.874c0 1.063-.861 1.924-1.924 1.924-1.062 0-1.923-.861-1.923-1.924 0-1.062.861-1.924 1.923-1.924 1.063 0 1.924.862 1.924 1.924z"/><path d="m572.401 277.055c0 1.063-.861 1.924-1.924 1.924-1.062 0-1.924-.861-1.924-1.924s.862-1.924 1.924-1.924c1.063 0 1.924.861 1.924 1.924z"/><path d="m535.238 164.526h-3.065v-3.064h-1.248v3.064h-3.065v1.249h3.065v3.058h1.248v-3.058h3.065z"/><path d="m197.046 444.521h-3.065v-3.065h-1.248v3.065h-3.065v1.249h3.065v3.058h1.248v-3.058h3.065z"/><path d="m732.245 426.428h-3.065v-3.065h-1.249v3.065h-3.065v1.249h3.065v3.058h1.249v-3.058h3.065z"/><path d="m460.346 134.324h-1.398v-1.397h-.567v1.397h-1.397v.567h1.397v1.398h.567v-1.398h1.398z"/><path d="m542.03 346.297h-1.398v-1.397h-.567v1.397h-1.397v.567h1.397v1.398h.567v-1.398h1.398z"/><path d="m64.077 398.953h-1.398v-1.397h-.567v1.397h-1.397v.567h1.397v1.398h.567v-1.398h1.398z"/><path d="m138.995 497.538h-1.397v-1.397h-.567v1.397h-1.398v.567h1.398v1.397h.567v-1.397h1.397z"/><path d="m358.649 164.864h-1.397v-1.397h-.567v1.397h-1.398v.567h1.398v1.397h.567v-1.397h1.397z"/><path d="m216.644 353.048h-1.398v-1.397h-.567v1.397h-1.397v.567h1.397v1.398h.567v-1.398h1.398z"/><path d="m234.871 294.992h-1.398v-1.398h-.567v1.398h-1.397v.567h1.397v1.397h.567v-1.397h1.398z"/></g><path d="m529.676 421.19c0 4.295-3.482 7.777-7.777 7.777s-7.777-3.482-7.777-7.777 3.482-7.777 7.777-7.777 7.777 3.482 7.777 7.777z" fill="url(#c)" opacity=".7"/><path d="m529.102 421.19c0 3.978-3.225 7.203-7.203 7.203s-7.203-3.225-7.203-7.203 3.225-7.203 7.203-7.203 7.203 3.225 7.203 7.203z" opacity=".2"/><path d="m549.347 471.895c0 4.448-3.605 8.054-8.053 8.054s-8.054-3.606-8.054-8.054 3.606-8.054 8.054-8.054 8.053 3.606 8.053 8.054z" opacity=".2"/><path
    d="m530.601 256.256c-1.874-2.475-4.222-4.551-6.906-6.109-8.434-4.87-19.012-3.948-26.476 2.308-7.463 6.256-10.22 16.51-6.899 25.665s12.011 15.257 21.75 15.272c.493 0 .985 0 1.465-.047 8.507-.542 16.03-5.71 19.588-13.456s2.576-16.82-2.556-23.626z"
    fill="url(#d)"/><path
    d="m534.01 270.217c-.002 11.559-8.986 21.128-20.522 21.858-.459 0-.925.048-1.391.048-9.207-.005-17.428-5.766-20.575-14.419-3.147-8.652-.548-18.348 6.504-24.267s17.052-6.796 25.027-2.197c2.538 1.474 4.757 3.439 6.528 5.779 2.88 3.797 4.435 8.432 4.429 13.198z"
    opacity=".2"/><path
    d="m506.71 256.317c-1.132.488-2.225 1.064-3.268 1.721-.695.381-1.293.917-1.748 1.566-.46.667-.478 1.543-.047 2.228.533.729 1.559.844 2.464.891 1.649.351 3.36-.214 4.475-1.478l1.884-1.708c.675-.594 1.35-1.411 1.087-2.241-.311-.613-.916-1.022-1.6-1.081-1.624-.321-3.309-.025-4.726.831"
    opacity=".1"/><path d="m500 278.864c0 .638-.517 1.155-1.155 1.155-.637 0-1.154-.517-1.154-1.155 0-.637.517-1.154 1.154-1.154.638 0 1.155.517 1.155 1.154z" opacity=".1"/><path d="m526.51 271.56c0 2.334-1.892 4.226-4.226 4.226s-4.226-1.892-4.226-4.226 1.892-4.226 4.226-4.226 4.226 1.892 4.226 4.226z" opacity=".1"/><path d="m529.622 257.019c-.034 3.076-2.478 5.584-5.553 5.697-3.074.113-5.696-2.208-5.956-5.273-.261-3.066 1.931-5.796 4.981-6.203 2.538 1.474 4.757 3.439 6.528 5.779z" opacity=".1"/><path d="m530.013 282.827c-3.815 5.432-9.893 8.835-16.519 9.248 0-.297-.04-.607-.04-.911-.002-3.923 2.21-7.511 5.714-9.273 3.505-1.763 7.704-1.398 10.852.943z" opacity=".1"/><path
    d="m231.354 381.314c-1.308-1.728-2.947-3.179-4.82-4.267-5.897-3.46-13.332-2.845-18.581 1.536-5.248 4.381-7.183 11.585-4.833 18.006 2.349 6.42 8.476 10.675 15.313 10.634.344 0 .675 0 1.026-.034 5.937-.376 11.187-3.983 13.669-9.389 2.483-5.406 1.796-11.738-1.788-16.486z"
    fill="url(#e)"/><path
    d="m233.73 391.055c-.002 8.065-6.27 14.74-14.318 15.25-.318 0-.676 0-.966 0-6.424-.002-12.162-4.021-14.358-10.058-2.197-6.036-.384-12.803 4.536-16.933 4.921-4.13 11.9-4.742 17.464-1.531 1.771 1.034 3.318 2.411 4.55 4.05 2.013 2.653 3.099 5.892 3.092 9.222z"
    opacity=".2"/><path
    d="m214.679 381.361c-.79.341-1.553.742-2.282 1.201-.483.267-.899.641-1.215 1.094-.308.474-.308 1.085 0 1.559.456.449 1.085.676 1.722.622 1.15.242 2.341-.152 3.119-1.033l1.316-1.195c.459-.412.959-.986.756-1.566-.215-.428-.637-.714-1.114-.756-1.13-.222-2.302-.015-3.287.58"
    opacity=".1"/><path d="m209.994 397.083c0 .444-.359.804-.803.804s-.803-.36-.803-.804c0-.443.359-.803.803-.803s.803.36.803.803z" opacity=".1"/><path d="m228.498 391.993c0 1.629-1.321 2.95-2.95 2.95s-2.95-1.321-2.95-2.95 1.321-2.95 2.95-2.95 2.95 1.321 2.95 2.95z" opacity=".1"/><path d="m230.645 381.847c-.017 2.167-1.737 3.937-3.903 4.016-2.165.079-4.009-1.56-4.185-3.72-.175-2.16 1.381-4.076 3.531-4.347 1.773 1.034 3.322 2.411 4.557 4.051z" opacity=".1"/><path d="m230.942 399.851c-2.663 3.792-6.906 6.167-11.53 6.454 0-.209 0-.425 0-.642.002-2.735 1.545-5.235 3.989-6.464 2.443-1.229 5.371-.977 7.568.652z" opacity=".1"/><path d="m108.426 415.244 18.424-34.608c1.795-3.371 5.983-4.649 9.354-2.854l15.447 8.224c3.371 1.794 4.649 5.982 2.854 9.353l-18.425 34.608c-1.794 3.371-5.982 4.649-9.353 2.855l-15.447-8.224c-3.371-1.795-4.649-5.983-2.854-9.354z" fill="url(#f)"/><path d="m136.432 379.179 14.043 7.477c3.371 1.794 4.649 5.982 2.854 9.353l-17.255 32.411c-1.794 3.371-5.982 4.649-9.353 2.855l-14.043-7.477c-3.372-1.795-4.649-5.982-2.855-9.353l17.255-32.411c1.795-3.371 5.983-4.649 9.354-2.855z" fill="#535461"/><path d="m145.719 397.858-15.159-7.676-1.612-6.979 22.569 11.495z" fill="#e0e0e0"/><path d="m151.32 395.07-22.356-11.898 5.734-.011 13.367 6.558z" fill="#e0e0e0"/><path
    d="m164.448 410.198c-1.596-2.064-5.133-2.287-6.888-.441.819-5.373-1.064-11.107-4.788-15.24-.617-.686-2.292-2.659-3.228-2.308-.9.477-1.64 1.207-2.128 2.101l-15.723-8.367.313-.585c1.208-2.293-.579-3.341-3.085-3.99-2.187-.538-4.472-.538-6.659 0-3.474.825-6.559 2.66-9.575 4.484l-1.319-4.255c-.087-.494-.373-.931-.792-1.207-.508-.152-1.057-.072-1.5.218-2.128 1.005-4.325 2.079-5.697 3.946-1.373 1.868-1.718 4.203-2.048 6.469s-.835 5.319.734 7.005c1.686 1.814 3.824 3.058 6.266 2.787 3.824-.425 7.761-.888 11.207-2.431l-10.638 19.974.234.127-17.713 28.644 12.894 6.777 16.691-29.102.378.203-15.138 29.93 13.048 7.027 13.829-30.713.405.218 10.739-20.175.192.473 3.521 8.681c.734 1.809 1.596 3.782 3.409 4.622 1.288.607 3.543-.893 4.841-1.398 1.266-.562 2.448-1.298 3.511-2.187 1.819-1.388 3.686-2.824 4.787-4.787s1.367-4.654-.08-6.5z"
    fill="url(#g)"/><path
    d="m163.001 410.017c-.812-.963-1.988-1.546-3.247-1.608-1.259-.063-2.487.4-3.391 1.278.807-5.382-.803-10.846-4.399-14.93-.585-.665-1.91-2.437-2.814-2.085-.425.164-1.037 1.367-1.532 2.377l-16.612-8.84.314-.58c1.197-2.271.277-2.862-2.127-3.463-2.12-.49-4.327-.448-6.426.123-3.362.861-6.383 2.723-9.308 4.558l-1.213-4.181c.002-.521-.308-.993-.787-1.198s-1.034-.104-1.41.257c-2.059 1.021-4.202 2.127-5.553 3.973s-1.718 4.16-2.069 6.383-.591 4.702.893 6.341c1.596 1.76 4.367 1.595 6.729 1.292 3.697-.473 7.5-.989 10.84-2.558l-11.585 21.723.224.122-17.506 28.458 11.793 6.271 17.074-28.686.362.191-14.606 30.006 12.021 6.383 13.793-30.437.388.208 11.378-21.378.175.463 3.266 8.511c.681 1.766 1.505 3.723 3.223 4.5 1.279.517 2.715.484 3.969-.091 1.235-.575 2.386-1.318 3.42-2.207 1.776-1.394 3.595-2.835 4.713-4.787 1.117-1.953 1.377-4.591.01-6.389z"
    fill="#eee"/><path
    d="m116.421 374.198c-.716-.645-1.759-.775-2.611-.324-.826.46-1.488 1.167-1.894 2.021-.197.521-.552.968-1.016 1.277-.445.175-.944.148-1.367-.075-.414-.223-.811-.477-1.186-.761-.679-.53-1.553-.743-2.399-.585-.819.229-1.42 1.245-.979 1.974-.542.15-.996.519-1.253 1.02-.257.5-.292 1.085-.098 1.613-.556.163-.97.629-1.068 1.2-.097.571.14 1.148.611 1.486-.395-.031-.782.123-1.047.416-.266.294-.38.694-.31 1.084.161.447.45.837.83 1.122q1.144 1.032 2.319 2.027c.648.646 1.456 1.108 2.341 1.34 2.372.404 2.941-2.548 3.622-4.133q1.527-3.558 3.372-6.973c.187-.346 2.224-3.633 2.133-3.729z"
    fill="#535461"/><path
    d="m165.842 400.507c.935.233 1.625 1.025 1.728 1.984.079.943-.138 1.888-.622 2.702-.322.454-.493.997-.489 1.553.109.456.41.844.824 1.064.416.219.848.406 1.293.558.819.268 1.483.874 1.824 1.665.266.809-.239 1.873-1.064 1.915.178.533.125 1.117-.147 1.609-.272.493-.737.848-1.284.982.178.553.023 1.158-.397 1.559s-1.032.526-1.576.324c.246.31.334.717.238 1.101-.096.385-.364.703-.727.861-.461.116-.946.094-1.394-.064q-1.495-.372-2.979-.792c-.898-.176-1.733-.587-2.42-1.192-1.659-1.739.473-3.867 1.404-5.319q2.101-3.255 3.905-6.691c.164-.319 1.728-3.846 1.883-3.819z"
    fill="#535461"/><path d="m160.57 382.586-2.33-1.255c1.336-5.851-1.063-11.745-6.18-14.468s-11.341-1.431-15.426 2.952l-2.298-1.223-2.824 5.319 1.963 1.064c-2.128 6.016.585 12.191 6.223 15.191s12.266 1.793 16.074-3.319l2.022 1.064z" fill="url(#h)"/><path d="m159.735 382.57-2.239-1.18c1.165-5.362-.931-11.314-5.787-13.899-4.857-2.585-10.963-.995-14.745 2.952l-2.181-1.16-2.606 4.83 1.867.995c-1.867 5.494.792 11.212 6.111 14.064 5.32 2.851 11.575 1.851 15.075-2.793l1.92 1.021z" fill="#eee"/><path d="m150.084 370.442c4.792 2.551 6.609 8.504 4.057 13.296-2.551 4.792-8.504 6.609-13.296 4.058-4.792-2.552-6.608-8.505-4.057-13.297s8.504-6.608 13.296-4.057z" fill="#535461"/><path d="m104.4 454.437c-1.542 2.899-4.255.825-7.904-1.122s-6.888-3.032-5.319-5.931 6.228-4.548 9.888-2.601 4.878 6.761 3.335 9.654z" fill="url(#i)"/><path d="m119.187 462.31c-1.542 2.899-4.255.824-7.904-1.123-3.649-1.946-6.888-3.031-5.319-5.93s6.229-4.548 9.888-2.601c3.66 1.946 4.878 6.755 3.335 9.654z" fill="url(#j)"/><path d="m103.985 454.023c-1.409 2.659-3.915.739-7.303-1.064s-6.383-2.814-4.963-5.463 5.734-4.149 9.123-2.346c3.388 1.803 4.563 6.218 3.143 8.873z" fill="#535461"/><path d="m118.671 462.31c-1.409 2.659-3.915.739-7.303-1.064s-6.383-2.814-4.963-5.463c1.421-2.649 5.734-4.149 9.123-2.346 3.388 1.804 4.553 6.224 3.143 8.873z" fill="#535461"/><path d="m150.139 372.922c2.725 1.447 4.61 4.091 5.091 7.138.376-3.796-1.477-7.466-4.754-9.417s-7.388-1.83-10.545.31c-3.156 2.141-4.79 5.915-4.191 9.681.323-3.263 2.251-6.151 5.141-7.699 2.891-1.549 6.363-1.554 9.258-.013z" opacity=".2"/><path d="m160.305 377.097.444.206-2.678 5.782-.444-.205z" fill="#fff"/><path d="m160.95 376.315c.491.227.704.809.477 1.299-.227.491-.809.704-1.3.477-.49-.227-.704-.809-.476-1.299.227-.491.809-.704 1.299-.477z" fill="#fff"/><path d="m126.235 381.82.596 15.075 2.415-.426s.494-8.547.09-14.25c-.98-.404-2.05-.542-3.101-.399z" fill="#535461"/><path d="m153.985 397.347-13.026 7.606-.942-2.26s7.037-5.101 12.059-7.83c1.244.75 1.909 2.484 1.909 2.484z" fill="#535461"/><path
    d="m315.418 448.75 141.139 81.487c2.083 1.203 5.719 1.052 8.123-.335l43.963-21.344c1.423-.82 2.096-1.893 1.975-2.878v-5.435h-3.265v1.641l-139.267-83.544c-2.078-1.2-5.717-1.05-8.121.338l-44.375 24.368c-2.405 1.386-2.254 4.501-.172 5.702"
    fill="#b5c8e9"/><path d="m315.418 446.602 141.14 81.486c2.082 1.203 5.718 1.052 8.122-.338l43.963-25.382c2.405-1.386 2.664-3.487.582-4.687l-141.139-81.487c-2.078-1.203-5.717-1.05-8.121.337l-43.964 25.382c-2.404 1.388-2.665 3.488-.583 4.689" fill="#e6eeff"/><path
    d="m447.054 513.058 7.191 4.164c.422.245.428.638.009.876l-2.039 1.17c-.417.239-1.099.235-1.521-.009l-7.186-4.168c-.424-.242-.426-.636-.011-.873l2.037-1.171c.419-.237 1.099-.235 1.52.011m4.757-2.729 7.194 4.164c.425.246.43.64.011.877l-1.891 1.083c-.417.24-1.099.235-1.521-.01l-7.191-4.165c-.421-.245-.427-.635-.01-.876l1.888-1.084c.416-.237 1.099-.232 1.52.011m-14.84-3.285 7.179 4.157c.421.244.424.635.007.876l-2.188 1.254c-.415.238-1.095.236-1.517-.01l-7.176-4.159c-.419-.243-.424-.634-.008-.874l2.184-1.255c.417-.24 1.096-.235 1.519.011m11.375-.721-6.647-3.845c-.422-.245-.424-.636-.007-.876l6.56-3.768c.419-.241 1.099-.238 1.52.007l6.655 3.845c.423.245.427.637.011.876l-6.571 3.772c-.417.237-1.099.234-1.521-.011m8.35-7.7 6.576-3.774c.417-.24 1.098-.237 1.523.008l6.67 3.847c.424.243.427.637.01.877l-6.583 3.776c-.417.237-1.099.235-1.523-.011l-6.663-3.847c-.421-.245-.426-.636-.01-.876m-10.007-4.91c-.422-.246-.427-.636-.008-.877l6.564-3.774c.419-.237 1.097-.234 1.519.009l6.661 3.842c.421.243.427.636.01.876l-6.574 3.773c-.418.241-1.098.236-1.522-.007zm-15.8 4.767 7.172 4.151c.422.246.424.636.007.874l-6.555 3.766c-.414.24-1.093.235-1.516-.008l-7.161-4.151c-.421-.243-.424-.636-.009-.874l6.548-3.764c.416-.239 1.093-.237 1.514.006m7.361-6.428c.416-.241 1.096-.238 1.515.007l6.645 3.838c.422.245.426.637.01.876l-6.563 3.768c-.416.241-1.094.236-1.518-.007l-6.634-3.84c-.422-.243-.424-.636-.011-.874zm-1.831-1.057-6.553 3.768c-.415.237-1.095.234-1.516-.009l-6.625-3.834c-.419-.243-.424-.634-.007-.874l6.542-3.765c.417-.241 1.097-.238 1.516.007l6.632 3.833c.421.241.426.633.011.874m-9.714-8.826c-.422-.242-.424-.636-.011-.873l6.548-3.771c.417-.24 1.097-.237 1.516.005l6.637 3.827c.421.246.425.636.008.874l-6.553 3.773c-.417.241-1.097.236-1.516-.007zm18.049 1.127 6.648 3.835c.421.243.425.633.008.874l-6.563 3.774c-.417.239-1.096.235-1.518-.008l-6.64-3.835c-.421-.242-.426-.636-.011-.873l6.559-3.774c.417-.241 1.093-.237 1.517.007m-26.733 7.737 9.517 5.508c.419.243.424.633.007.874l-6.546 3.763c-.413.239-1.09.235-1.512-.008l-9.504-5.508c-.422-.243-.424-.634-.01-.874l6.535-3.763c.417-.237 1.093-.235 1.513.008m-6.265-6.748 6.535-3.768c.414-.238 1.092-.235 1.514.007l6.618 3.828c.422.242.428.633.011.87l-6.543 3.77c-.417.237-1.093.234-1.512-.009l-6.615-3.826c-.419-.243-.421-.634-.008-.872m-15.172-16.312-6.515 3.763c-.414.24-1.088.237-1.507-.005l-6.58-3.807c-.416-.24-.421-.632-.007-.869l6.506-3.763c.415-.24 1.089-.238 1.505.003l6.589 3.806c.417.243.422.631.009.872m-3.062-4.969-6.583-3.804c-.416-.243-.421-.631-.008-.869l6.51-3.768c.414-.241 1.088-.239 1.505.002l6.591 3.801c.419.243.424.634.011.872l-6.521 3.768c-.411.24-1.086.237-1.505-.002m9.844-2.716c.415-.238 1.089-.238 1.508.005l6.602 3.809c.421.24.424.631.01.871l-6.528 3.768c-.413.239-1.089.236-1.508-.005l-6.596-3.808c-.416-.243-.421-.632-.008-.872zm3.151 13.426-6.526 3.765c-.414.237-1.088.235-1.507-.004l-6.591-3.818c-.42-.24-.422-.631-.008-.869l6.517-3.765c.415-.237 1.089-.235 1.508.007l6.598 3.812c.419.243.423.631.009.872m8.303-7.686 6.612 3.815c.421.243.424.633.009.874l-6.537 3.768c-.414.24-1.091.237-1.51-.005l-6.607-3.815c-.419-.243-.421-.633-.007-.874l6.527-3.768c.416-.24 1.092-.238 1.513.005m1.648 13.436-6.535 3.766c-.415.237-1.091.235-1.51-.007l-6.602-3.82c-.419-.243-.422-.632-.007-.871l6.524-3.766c.414-.238 1.091-.238 1.51.005l6.609 3.822c.421.24.425.631.011.871m8.313-7.69 6.624 3.822c.419.243.424.633.009.874l-6.546 3.77c-.414.239-1.093.236-1.512-.007l-6.618-3.822c-.421-.243-.424-.633-.009-.871l6.539-3.771c.415-.238 1.091-.238 1.513.005m-53.795-7.102c.412-.237 1.084-.235 1.5.004l42.19 24.42c.419.243.424.633.009.874l-6.534 3.763c-.415.237-1.091.235-1.51-.007l-42.141-24.428c-.416-.239-.421-.629-.008-.868zm1.094-3.342 6.5-3.761c.414-.239 1.085-.237 1.502.002l6.576 3.8c.419.243.421.631.007.871l-6.504 3.763c-.414.237-1.086.237-1.505-.004l-6.568-3.802c-.417-.241-.419-.629-.008-.869m4.686-4.809-6.497 3.761c-.412.241-1.084.238-1.5-.005l-6.558-3.794c-.417-.239-.419-.629-.008-.866l6.489-3.76c.414-.241 1.086-.241 1.503.002l6.562 3.794c.419.24.423.629.009.868m-3.049-4.958-6.56-3.789c-.417-.242-.419-.631-.008-.871l6.492-3.763c.411-.238 1.086-.238 1.502.003l6.569 3.788c.416.241.419.631.007.869l-6.499 3.766c-.414.239-1.086.237-1.503-.003m9.816-2.716c.412-.24 1.086-.238 1.502.003l6.582 3.793c.416.243.422.631.007.872l-6.509 3.766c-.411.24-1.086.238-1.503-.003l-6.573-3.797c-.417-.243-.422-.631-.008-.868zm-25.436 8.364c.412-.237 1.081-.237 1.498.006l9.572 5.539c.417.242.419.631.008.868l-6.492 3.758c-.413.237-1.083.235-1.499-.005l-9.563-5.541c-.415-.24-.417-.628-.005-.869zm-5.753-7.299 6.479-3.761c.411-.237 1.083-.237 1.5.003l6.553 3.787c.416.242.419.631.007.868l-6.486 3.761c-.412.24-1.084.238-1.5-.003l-6.546-3.788c-.415-.241-.419-.629-.007-.867m11.496-4.054-6.55-3.784c-.417-.24-.419-.628-.007-.869l6.483-3.763c.412-.237 1.084-.237 1.498.002l6.558 3.782c.417.24.421.631.007.869l-6.488 3.765c-.412.237-1.084.237-1.501-.002m-17.477 4.561c.411-.239 1.08-.236 1.497.004l8.423 4.875c.414.24.419.628.006.869l-6.48 3.755c-.411.238-1.08.238-1.497-.005l-8.413-4.874c-.413-.241-.416-.629-.007-.866zm-9.833-5.692c.408-.239 1.077-.239 1.491.002l6.533 3.781c.414.24.417.629.005.866l-6.468 3.756c-.412.237-1.079.237-1.493-.005l-6.524-3.781c-.415-.238-.417-.626-.009-.865zm-1.81-1.909c.417.239.419.629.009.866l-6.46 3.756c-.41.237-1.077.234-1.492-.003l-6.512-3.776c-.413-.238-.417-.626-.007-.863l6.454-3.756c.408-.237 1.077-.235 1.489.002zm22.289 1.422c.416.241.419.629.008.867l-6.476 3.761c-.415.24-1.084.237-1.498-.003l-18.911-10.943c-.414-.237-.419-.625-.008-.863l6.462-3.758c.408-.24 1.077-.238 1.492 0zm4.941-8.706c.417.24.421.628.007.866l-6.479 3.764c-.41.237-1.083.237-1.496-.003l-13.899-8.028c-.414-.237-.416-.626-.005-.863l6.466-3.763c.412-.239 1.081-.239 1.495 0zm9.468-8.949c-.412.237-1.083.237-1.5-.003l-10.15-5.853c-.416-.241-.419-.629-.008-.866l3.418-2.003c.412-.241 1.082-.241 1.498 0l10.163 5.852c.417.241.419.627.007.867zm9.87 5.689c-.412.24-1.084.237-1.5-.003l-6.556-3.778c-.416-.24-.419-.628-.008-.869l3.431-2.003c.415-.24 1.084-.24 1.501 0l6.562 3.781c.417.241.422.629.009.867zm9.886 5.7c-.413.24-1.085.237-1.501-.003l-6.566-3.786c-.419-.24-.422-.628-.011-.867l3.442-2.005c.413-.239 1.085-.239 1.502 0l6.576 3.787c.416.24.422.631.008.868zm9.903 5.71c-.412.24-1.086.237-1.502-.003l-6.579-3.794c-.419-.239-.421-.629-.008-.868l3.45-2.006c.414-.238 1.086-.238 1.505.003l6.584 3.791c.419.243.424.631.009.871zm9.924 5.721c-.415.239-1.091.237-1.508-.004l-6.589-3.798c-.419-.243-.425-.632-.01-.872l3.461-2.005c.412-.241 1.086-.241 1.505.002l6.597 3.797c.419.243.424.631.007.87zm8.425 5.724-6.599-3.806c-.42-.24-.422-.631-.008-.868l3.467-2.012c.414-.237 1.092-.237 1.511.006l6.609 3.804c.419.242.421.633.007.87l-3.477 2.012c-.414.237-1.091.237-1.51-.006m9.954 5.739-6.612-3.813c-.419-.241-.424-.631-.008-.87l3.478-2.008c.413-.241 1.09-.241 1.51.002l6.618 3.812c.422.243.424.631.011.871l-3.488 2.01c-.414.241-1.09.239-1.509-.004m9.968 5.748-6.622-3.817c-.421-.243-.424-.633-.01-.874l3.487-2.01c.417-.241 1.094-.237 1.516.004l6.627 3.817c.421.243.426.636.01.874l-3.493 2.011c-.415.24-1.096.238-1.515-.005m9.985 5.758-6.632-3.824c-.422-.242-.428-.634-.011-.874l3.498-2.011c.416-.239 1.094-.237 1.515.005l6.642 3.826c.423.241.427.633.008.872l-3.503 2.012c-.416.239-1.096.237-1.517-.006m10.005 5.77-6.645-3.833c-.422-.243-.427-.633-.011-.874l3.506-2.013c.416-.24 1.095-.238 1.517.005l6.655 3.833c.422.242.424.633.008.873l-3.513 2.014c-.416.239-1.096.237-1.517-.005m10.02 5.776-6.658-3.838c-.422-.243-.426-.635-.011-.876l3.515-2.01c.417-.243 1.099-.238 1.521.004l6.665 3.838c.424.243.427.636.011.874l-3.523 2.015c-.417.241-1.098.238-1.52-.007m10.035 5.789-6.666-3.845c-.424-.245-.428-.636-.013-.876l3.526-2.017c.417-.239 1.102-.234 1.523.009l6.675 3.844c.425.243.43.636.011.877l-3.531 2.016c-.419.237-1.101.235-1.525-.008m10.056 5.797-6.681-3.853c-.424-.243-.427-.636-.011-.876l3.534-2.015c.419-.241 1.101-.236 1.525.007l6.688 3.853c.425.242.43.636.011.876l-3.54 2.015c-.42.241-1.102.239-1.526-.007m10.071 5.807-6.691-3.858c-.425-.245-.43-.639-.011-.876l3.544-2.019c.42-.239 1.101-.234 1.528.009l6.696 3.857c.427.246.432.639.013.879l-3.551 2.015c-.419.241-1.104.239-1.528-.007m-137.823-69.119c-.412.241-1.083.241-1.498-.002l-10.152-5.853c-.414-.238-.419-.626-.008-.863l6.474-3.769c.412-.237 1.081-.237 1.498 0l10.163 5.854c.416.239.419.628.007.868zm9.87 5.692c-.412.239-1.084.239-1.5-.002l-6.556-3.781c-.414-.237-.419-.625-.008-.866l6.487-3.768c.414-.238 1.086-.238 1.5.002l6.563 3.779c.416.24.421.629.008.868zm9.886 5.701c-.411.237-1.085.237-1.501-.003l-6.566-3.786c-.417-.24-.42-.628-.009-.869l6.496-3.768c.413-.241 1.084-.238 1.503 0l6.575 3.786c.415.241.421.631.007.869zm9.906 5.71c-.415.237-1.089.237-1.505-.003l-6.579-3.794c-.416-.239-.421-.629-.008-.868l6.505-3.772c.414-.237 1.088-.237 1.505.003l6.584 3.794c.419.241.424.629.01.869zm9.921 5.721c-.415.239-1.089.237-1.508-.006l-6.589-3.8c-.419-.239-.421-.631-.008-.868l6.515-3.771c.411-.24 1.088-.237 1.505.003l6.597 3.798c.419.241.424.629.009.87zm8.428 5.724-6.603-3.806c-.419-.241-.421-.631-.007-.872l6.522-3.77c.417-.241 1.092-.239 1.51.002l6.61 3.806c.419.241.422.631.008.872l-6.531 3.77c-.416.241-1.09.239-1.509-.002m9.95 5.739-6.611-3.813c-.419-.241-.422-.633-.009-.874l6.533-3.77c.414-.241 1.092-.237 1.513.005l6.617 3.81c.421.242.424.633.011.873l-6.541 3.774c-.417.238-1.093.238-1.513-.005m9.969 5.748-6.622-3.819c-.422-.243-.424-.631-.01-.872l6.543-3.773c.416-.24 1.094-.24 1.515.003l6.63 3.819c.419.24.424.633.007.871l-6.548 3.776c-.415.24-1.093.238-1.515-.005m9.987 5.758-6.634-3.827c-.419-.243-.425-.633-.011-.871l6.553-3.775c.417-.241 1.093-.239 1.516.004l6.641 3.825c.422.243.428.633.011.874l-6.561 3.776c-.416.239-1.093.237-1.515-.006m10.003 5.766-6.646-3.829c-.421-.245-.426-.636-.01-.876l6.561-3.777c.417-.239 1.096-.237 1.519.009l6.654 3.829c.421.245.424.636.007.876l-6.566 3.777c-.419.239-1.098.237-1.519-.009m10.02 5.78-6.656-3.838c-.424-.245-.429-.635-.011-.876l6.569-3.776c.417-.24 1.099-.238 1.523.006l6.663 3.837c.424.242.426.636.011.876l-6.58 3.778c-.416.241-1.097.236-1.519-.007m10.037 5.786-6.668-3.844c-.424-.243-.428-.637-.01-.877l6.579-3.776c.419-.241 1.101-.237 1.523.005l6.675 3.846c.424.241.43.635.011.876l-6.587 3.778c-.419.24-1.101.238-1.523-.008m10.054 5.798-6.679-3.851c-.423-.245-.429-.636-.01-.876l6.586-3.781c.419-.237 1.104-.235 1.528.01l6.686 3.85c.425.245.43.637.011.876l-6.597 3.781c-.419.241-1.101.235-1.525-.009m10.071 5.807-6.691-3.858c-.425-.243-.43-.637-.011-.876l6.6-3.781c.419-.241 1.1-.236 1.528.009l6.698 3.855c.425.246.429.64.01.879l-6.606 3.781c-.419.241-1.104.239-1.528-.009m-10.163 5.819-12.894-7.447c-.422-.245-.427-.639-.011-.879l6.587-3.773c.416-.241 1.098-.235 1.523.007l12.909 7.447c.426.243.429.637.01.877l-6.596 3.779c-.419.24-1.104.234-1.528-.011m-10.151 5.813-17.773-10.286c-.423-.243-.427-.636-.008-.877l6.57-3.768c.417-.24 1.1-.237 1.523.007l17.793 10.282c.424.245.428.638.009.879l-6.589 3.772c-.419.239-1.101.236-1.525-.009m-8.683 6.56-7.199-4.174c-.426-.245-.428-.637-.011-.876l2.192-1.255c.417-.24 1.098-.235 1.519.011l7.206 4.171c.424.246.429.639.01.877l-2.195 1.257c-.419.239-1.098.234-1.522-.011"
    fill="#fff"/><path d="m537.295 482.809-65.446-38.379c-4.924-2.887-4.857-9.302.648-11.722l65.733-26.966 67.108 39.355-50.715 37.234c-4.277 3.139-12.407 3.364-17.328.478" fill="#b5c8e9"/><path d="m537.295 480.573-65.446-38.379c-4.924-2.887-4.408-7.575 1.099-9.994l65.282-28.694 67.108 39.353-50.715 37.236c-4.277 3.14-12.407 3.365-17.328.478" fill="#e6eeff"/><path
    d="m395.092 124.145-.003-.003-2.194 1.456s1.762 3.087 1.908 3.746c.148.662 5.359 3.598 5.359 3.451 0-.049.888-.833 2.096-1.877v195.34c0 6.392 3.889 13.818 8.682 16.585l271.787 161.432 2.199 1.449 1.991 8.045 3.761-1.415c.073-.046.148-.09.222-.136l.141-.089-.004-.008c1.634-1.162 2.648-3.526 2.648-6.793v-200.746c0-6.392-3.883-13.817-8.678-16.586l-284.131-163.455c-1.224-.707-2.389-1.043-3.447-1.043-.858 0-1.648.223-2.337.647"
    fill="url(#k)"/><path d="m681.46 289.299-282.339-163.009c-4.795-2.769-8.682.169-8.682 6.562v200.745c0 6.393 3.887 13.82 8.682 16.587l282.339 163.01c4.795 2.767 8.681-.171 8.681-6.564v-200.745c0-6.392-3.886-13.819-8.681-16.586" fill="#fff"/><path d="m390.439 130.856v176.83l299.702 173.033v-176.83c0-5.291-3.886-11.821-8.681-14.59l-282.339-163.011c-1.451-.838-2.819-1.233-4.02-1.233-2.771 0-4.662 2.112-4.662 5.801" fill="url(#l)"/><path d="m404.667 305.405 62.356 35.745v-161.366l-61.924-35.75z" fill="url(#m)"/>
  <g clip-path="url(#n)" opacity=".3"><path d="m450.451 212.555c0 9.381-6.802 13.061-15.189 8.216-8.39-4.844-15.19-16.377-15.19-25.758 0-9.383 6.8-13.063 15.19-8.218 8.387 4.843 15.189 16.375 15.189 25.76" fill="#fff"/></g>
  <g clip-path="url(#o)" opacity=".2"><path d="m453.892 246.426-37.263-21.511c-1.621-.937-2.934-3.405-2.934-5.514 0-2.104 1.313-3.055 2.934-2.118l37.263 21.513c1.623.937 2.935 3.402 2.935 5.51s-1.312 3.058-2.935 2.12" fill="#fff"/></g>
  <g clip-path="url(#p)" opacity=".1"><path d="m450.346 254.371-30.17-17.416c-1.021-.59-1.852-2.148-1.852-3.479 0-1.328.831-1.927 1.852-1.337l30.17 17.419c1.022.59 1.852 2.147 1.852 3.477 0 1.329-.83 1.929-1.852 1.336" fill="#fff"/></g><path d="m588.635 368.078-107.352-62.405c-.768-.444-1.392-1.613-1.392-2.611v-99.051c0-.999.624-1.449 1.392-1.003l107.352 62.404c.769.444 1.393 1.612 1.393 2.61v99.051c0 .999-.624 1.449-1.393 1.005" fill="#dee7f7"/><path d="m570.82 278.829-73.973-43.161c-.649-.376-1.178-1.367-1.178-2.213 0-.845.529-1.226 1.178-.85l73.973 43.161c.652.375 1.181 1.367 1.181 2.213 0 .845-.529 1.229-1.181.85" fill="#a5b5d9"/><path d="m543.919 275.386-46.744-27.442c-.543-.315-.983-1.14-.983-1.845 0-.707.44-1.027.983-.712l46.744 27.444c.545.311.987 1.139.987 1.845 0 .707-.442 1.023-.987.71" fill="#c5d0e8"/><path d="m517.996 266.963-20.82-12.477c-.544-.313-.983-1.138-.983-1.846 0-.705.439-1.025.983-.71l20.82 12.475c.543.314.983 1.139.983 1.844 0 .708-.44 1.027-.983.714" fill="#c5d0e8"/><path d="m543.919 288.553-46.744-27.444c-.543-.311-.983-1.139-.983-1.844 0-.708.44-1.025.983-.711l46.744 27.441c.545.313.987 1.14.987 1.845 0 .708-.442 1.028-.987.713" fill="#c5d0e8"/><path d="m517.996 280.127-20.82-12.475c-.544-.311-.983-1.14-.983-1.847 0-.705.439-1.022.983-.708l20.82 12.473c.543.315.983 1.142.983 1.847s-.44 1.025-.983.71" fill="#c5d0e8"/><path d="m543.919 302.194-46.744-27.442c-.543-.315-.983-1.142-.983-1.847s.44-1.025.983-.71l46.744 27.441c.545.314.987 1.139.987 1.847 0 .705-.442 1.024-.987.711" fill="#c5d0e8"/><path d="m543.919 301.815-46.744-27.441c-.543-.315-.983-1.14-.983-1.847 0-.706.44-1.025.983-.71l46.744 27.441c.545.314.987 1.142.987 1.847 0 .706-.442 1.024-.987.71" fill="#c5d0e8"/><path d="m543.919 308.611-46.744-27.441c-.543-.315-.983-1.142-.983-1.847 0-.706.44-1.025.983-.71l46.744 27.441c.545.314.987 1.139.987 1.847 0 .704-.442 1.024-.987.71" fill="#c5d0e8"/><path d="m543.919 315.029-46.744-27.441c-.543-.315-.983-1.143-.983-1.848s.44-1.025.983-.71l46.744 27.442c.545.313.987 1.142.987 1.847s-.442 1.024-.987.71" fill="#c5d0e8"/><path d="m639.131 323.207v102.083c0 1.03-.644 1.492-1.435 1.035l-110.638-64.318c-.791-.457-1.435-1.661-1.435-2.693v-102.081c0-1.03.644-1.494 1.435-1.034l110.638 64.315c.791.457 1.435 1.663 1.435 2.693" fill="#fff"/><path d="m525.623 257.233v36.21l113.508 65.539v-35.775c0-1.03-.643-2.233-1.435-2.693l-110.638-64.315c-.206-.12-.403-.176-.582-.176-.5 0-.853.449-.853 1.21" fill="url(#q)"/><path
    d="m639.131 346.482v12.497l-113.508-65.536v-6.353l8.461-2.524 1.613-.473 5.334 8.128 2.105-.6 2.987.169.118.005h.007l4.362 5.223 4.36 5.221h.005l.421.503 9.75-2.145h.005l.011-.005 3.995 2.815 11.714 13.339.015-.013 5.789-4.022 6.513-6.348.026.041h.007l7.003 11.098.092.056 4.361 2.81.077.049v.005l7.224 11.167c0 .007 0 .007.006.011l.077.12 10.916-4.725.126.213v.005l7.404 12.524h.014l2.798-.097.818-.031z"
    fill="#555af2"/><path d="m604.616 360.635-45.134-26.495c-.524-.305-.95-1.102-.95-1.784 0-.683.426-.989.95-.685l45.134 26.494c.523.304.951 1.1.951 1.783 0 .682-.428.989-.951.687" fill="#dce4f5"/><path d="m579.586 352.5-20.104-12.043c-.524-.305-.947-1.101-.947-1.783 0-.683.423-.989.947-.688l20.104 12.044c.523.304.948 1.103.948 1.783 0 .683-.425.989-.948.687" fill="#dce4f5"/><path d="m551.013 337.57-8.804-5.084c-.703-.406-1.273-1.474-1.273-2.386v-9.39c0-.911.57-1.32 1.273-.917l8.804 5.085c.703.406 1.272 1.474 1.272 2.386v9.386c0 .913-.569 1.323-1.272.92" fill="#dce4f5"/><path d="m604.616 383.646-45.134-26.495c-.524-.302-.95-1.102-.95-1.784 0-.683.426-.989.95-.685l45.134 26.497c.523.301.951 1.1.951 1.78 0 .683-.428.991-.951.687" fill="#dce4f5"/><path d="m579.586 375.512-20.104-12.044c-.524-.304-.947-1.1-.947-1.783 0-.682.423-.989.947-.685l20.104 12.044c.523.302.948 1.1.948 1.783 0 .682-.425.989-.948.685" fill="#dce4f5"/><path d="m551.013 360.548-8.804-5.087c-.703-.403-1.273-1.471-1.273-2.383v-9.389c0-.912.57-1.324 1.273-.917l8.804 5.084c.703.406 1.272 1.474 1.272 2.386v9.386c0 .912-.569 1.324-1.272.92" fill="#dce4f5"/><path
    d="m553.134 540.802c0 .266-.036.532-.108.794-.222.828-.796 1.631-1.711 2.325l-.509.383c-10.69 8.11-23.246 15.334-37.321 21.477l-.046.02c-2.846 1.244-6.709 1.384-9.828.36l-.018-.008c-.455-.149-.903-.302-1.344-.46-5.956-2.125-10.925-5.071-14.445-8.576l-.268-.268c-1.816-1.804-1.584-4.055.582-5.71 5.324-4.065 11.111-7.91 17.324-11.508 6.216-3.599 12.857-6.956 19.874-10.043l.622-.271c2.871-1.262 6.782-1.399 9.919-.349l.445.151c6.52 2.183 11.926 5.331 15.651 9.115.789.802 1.181 1.687 1.181 2.568"
    fill="#b5c8e9"/><path
    d="m553.134 540.802c0 .266-.036.532-.108.794-2.139.504-9.877 2.118-16.272 4.56-3.387 1.294-7.677 4.188-7.677 4.188-5.117 2.793-15.934 12.798-18.144 14.889-2.213 2.096-3.335 1.638-5.158 1.344-.468-.077-1.805-.418-3.526-.884-5.956-2.125-10.925-5.07-14.445-8.576l-.268-.268c-.236-.233-.435-.473-.604-.721-.354-.526-.564-1.163-.61-1.715-.003-.009-.003-.023-.003-.032l.005-.297c.041-1.211.892-2.143 1.147-2.432 7.864-8.824 13.592-13.817 21.832-17.592 8.374-3.84 13.329-5.171 19.427-5.701.725-.063 1.422-.089 2.084-.083 1.722.015 3.211.23 4.423.505.005 0 .01.002.015.002.204.057.407.121.605.185l.445.151c.828.275 1.638.57 2.428.876 5.438 2.118 9.971 4.935 13.223 8.239.789.802 1.181 1.687 1.181 2.568"
    fill="#fff"/><path d="m392.01 363.085-80.574-49.604c-3.88-2.241-7.023-8.247-7.023-13.421l-.366-125.136c0-7.69 7.854-7.991 11.733-5.753l79.914 46.778c3.878 2.242 6.191 8.25 6.191 13.424v124.574c0 9.038-3.386 12.508-9.875 9.138" fill="#b5c8e9"/><path d="m392.125 363.267-81.023-46.78c-3.879-2.237-7.023-8.247-7.023-13.417v-128.085c0-5.171 3.144-7.549 7.023-5.308l81.023 46.779c3.879 2.24 7.023 8.249 7.023 13.421v128.081c0 5.173-3.144 7.549-7.023 5.309" fill="#fff"/><path d="m395.128 227.592-87.029-50.243c-.475-.275-.863.016-.863.651v120.057c0 .636.388 1.372.863 1.648l87.029 50.246c.475.276.863-.018.863-.652v-120.059c0-.634-.388-1.371-.863-1.648" fill="#323b70"/><path d="m345.277 194.883 12.67 7.314c.309.18.559-.01.559-.421s-.25-.889-.559-1.066l-12.67-7.314c-.306-.179-.557.01-.557.421 0 .409.251.887.557 1.066" fill="#d0dbf0"/><path d="m351.613 327.745c-2.028-1.174-3.673-.236-3.673 2.091 0 2.33 1.645 5.169 3.673 6.339 2.029 1.173 3.674.232 3.674-2.095s-1.645-5.166-3.674-6.335" fill="#d1dcf0"/><path d="m307.229 177.707v120.58c0 .572.347 1.239.779 1.489l87.386 50.451c.428.25.778-.013.778-.588v-120.578c0-.572-.35-1.241-.778-1.487l-87.386-50.455c-.112-.063-.218-.092-.312-.092-.276 0-.467.256-.467.68" fill="url(#s)"/><path d="m312.489 210.077 80.456 46.451-.935-25.563-80.457-46.452z" fill="url(#u)"/><path
    d="m392.731 248.506-.084-.095.296 8.117-80.454-46.451-.131-3.538 6.766-1.69 1.118-.278 3.716 5.472 1.469-.35 2.08.176.083.008 6.084 7.066.293.343 6.794-1.195.01-.003 2.784 1.941 8.163 9.04.008-.008 4.031-2.52 4.541-4.033.018.028 4.879 7.46.067.04 3.037 1.947.054.034 5.033 7.514.056.084 7.603-2.864.09.143 5.158 8.408h.01l1.95-.002h.568l3.826 5.093z"
    fill="#f7527b"/>
  <g clip-path="url(#v)" opacity=".6"><path d="m388.297 263.677c0 .933-.687 1.292-1.533.805l-62.825-36.583c-.895-.516-1.618-1.691-1.618-2.626 0-.933.723-1.273 1.618-.757l62.74 36.534c.895.516 1.618 1.692 1.618 2.627" fill="#fff"/></g>
  <g clip-path="url(#w)" opacity=".2"><path d="m378.432 265.077-55.23-32.201c-.487-.281-.881-.976-.881-1.557 0-.579.394-.822.881-.541l55.23 32.199c.489.281.881.978.881 1.558s-.392.823-.881.542" fill="#fff"/></g>
  <g clip-path="url(#x)" opacity=".6"><path d="m371.598 270.924-34.903-20.461c-.407-.235-.734-.817-.734-1.3 0-.484.327-.687.734-.452l34.903 20.461c.405.235.734.817.734 1.301 0 .485-.329.687-.734.451" fill="#fff"/></g>
  <g clip-path="url(#y)" opacity=".2"><path d="m352.241 264.231-15.546-9.287c-.407-.235-.737-.817-.737-1.301 0-.482.33-.684.737-.451l15.546 9.287c.406.234.733.817.733 1.3 0 .482-.327.685-.733.452" fill="#fff"/></g><path d="m329.56 252.221-6.3-3.636c-.501-.291-.909-1.05-.909-1.696v-6.66c0-.647.408-.938.909-.647l6.3 3.635c.504.292.91 1.05.91 1.697v6.661c0 .649-.406.937-.91.646" fill="#ffd9b3"/>
  <g clip-path="url(#z)" opacity=".6"><path d="m371.598 286.024-34.903-20.462c-.407-.235-.734-.815-.734-1.301 0-.482.327-.685.734-.451l34.903 20.461c.405.235.734.818.734 1.3 0 .486-.329.687-.734.453" fill="#fff"/></g>
  <g clip-path="url(#A)" opacity=".2"><path d="m352.241 279.33-15.546-9.287c-.407-.235-.737-.815-.737-1.298 0-.485.33-.687.737-.452l15.546 9.285c.406.235.733.816.733 1.3 0 .485-.327.687-.733.452" fill="#fff"/></g><path d="m329.56 267.346-6.3-3.639c-.501-.288-.909-1.05-.909-1.697v-6.659c0-.647.408-.935.909-.647l6.3 3.638c.504.288.91 1.05.91 1.696v6.661c0 .647-.406.935-.91.647" fill="#ffd9b3"/>
  <g clip-path="url(#B)" opacity=".6"><path d="m371.598 301.45-34.903-20.462c-.407-.235-.734-.818-.734-1.3 0-.485.327-.688.734-.453l34.903 20.462c.405.235.734.818.734 1.301 0 .484-.329.687-.734.452" fill="#fff"/></g><path d="m352.242 294.756-15.546-9.286c-.407-.235-.736-.818-.736-1.301s.329-.685.736-.45l15.546 9.284c.406.236.733.818.733 1.302 0 .482-.327.683-.733.451" fill="#fff" opacity=".2"/><path d="m329.56 282.746-6.3-3.638c-.501-.288-.909-1.047-.909-1.696v-6.659c0-.649.408-.937.909-.649l6.3 3.639c.504.289.91 1.05.91 1.697v6.659c0 .647-.406.939-.91.647" fill="#ffd9b3"/>
  <g clip-path="url(#C)" opacity=".6"><path d="m371.598 316.758-34.903-20.464c-.407-.232-.734-.815-.734-1.297 0-.487.327-.688.734-.453l34.903 20.462c.405.235.734.814.734 1.3 0 .483-.329.685-.734.452" fill="#fff"/></g>
  <g clip-path="url(#D)" opacity=".2"><path d="m352.241 310.062-15.546-9.284c-.407-.235-.737-.817-.737-1.301 0-.485.33-.687.737-.451l15.546 9.286c.406.232.733.815.733 1.298 0 .485-.327.687-.733.452" fill="#fff"/></g><path d="m329.56 298.055-6.3-3.639c-.501-.291-.909-1.05-.909-1.695v-6.661c0-.647.408-.935.909-.647l6.3 3.635c.504.293.91 1.05.91 1.699v6.661c0 .647-.406.935-.91.647" fill="#ffd9b3"/><path d="m627.612 514.048-29.866-19.172c-3.11-1.793-5.629-6.609-5.629-10.753l-3.168-84.108c0-4.719 5.687-5.825 8.797-4.031l32.955 19.025c3.106 1.796 5.627 6.61 5.627 10.757v82.032c0 6.298-5.449 7.931-8.716 6.25" fill="#b5c8e9"/><path d="m627.346 513.904-32.955-19.028c-3.108-1.793-5.631-6.609-5.631-10.753v-82.959c0-4.143 2.523-6.048 5.631-4.255l32.955 19.026c3.107 1.796 5.629 6.611 5.629 10.755v82.958c0 4.144-2.522 6.05-5.629 4.256" fill="#fff"/><path d="m591.943 478.393v-73.299c0-1.472.895-2.146 1.996-1.51l33.857 19.548c1.103.635 1.997 2.345 1.997 3.813v73.299c0 1.472-.894 2.146-1.997 1.51l-33.857-19.548c-1.101-.635-1.996-2.345-1.996-3.813" fill="#323b70"/><path d="m615.006 413.397-8.278-4.779c-.26-.151-.472-.555-.472-.903 0-.347.212-.508.472-.357l8.278 4.78c.261.151.473.554.473.901 0 .348-.212.509-.473.358" fill="#d0dbf0"/><path d="m614.048 499.656c0 2.019-1.423 2.828-3.181 1.814-1.755-1.014-3.18-3.47-3.18-5.485 0-2.016 1.425-2.828 3.18-1.814 1.758 1.014 3.181 3.469 3.181 5.485" fill="#d0dbf0"/><path
    d="m591.844 403.886v75.544c0 .912.649 1.555 1.447 2.488l35.026 20.221c.176.106.16.084.235.113.685.268 1.262-.117 1.262-.938l-.051-75.536c0-.909-.649-2.028-1.446-2.486l-35.026-20.221c-.233-.136-.455-.202-.649-.202-.473 0-.798.373-.798 1.017"
    fill="url(#E)"/>
  <g clip-path="url(#F)" opacity=".6"><path d="m622.986 452.042-11.933-6.901c-.428-.246-.775-.859-.775-1.367s.347-.72.775-.472l11.933 6.9c.429.248.774.858.774 1.367 0 .508-.345.721-.774.473" fill="#fff"/></g>
  <g clip-path="url(#G)" opacity=".3"><path d="m619.154 454.537-8.101-4.687c-.428-.248-.775-.859-.775-1.367s.347-.72.775-.473l8.101 4.686c.426.248.774.861.774 1.37 0 .505-.348.717-.774.471" fill="#fff"/></g><path d="m603.532 446.976-6.64-3.832c-.529-.307-.958-1.104-.958-1.787v-6.994c0-.681.429-.983.958-.681l6.64 3.835c.53.307.961 1.104.961 1.785v6.997c0 .68-.431.984-.961.677" fill="#ffd9b3"/>
  <g clip-path="url(#H)" opacity=".6"><path d="m622.986 467.904-11.933-6.9c-.428-.248-.775-.858-.775-1.367 0-.508.347-.72.775-.472l11.933 6.9c.429.246.774.859.774 1.368 0 .507-.345.719-.774.471" fill="#fff"/></g>
  <g clip-path="url(#I)" opacity=".3"><path d="m619.154 470.401-8.101-4.689c-.428-.247-.775-.857-.775-1.366s.347-.721.775-.473l8.101 4.689c.426.244.774.858.774 1.363 0 .509-.348.721-.774.476" fill="#fff"/></g><path d="m603.532 462.861-6.64-3.831c-.529-.307-.958-1.104-.958-1.784v-6.997c0-.68.429-.985.958-.677l6.64 3.834c.53.304.961 1.104.961 1.784v6.995c0 .68-.431.984-.961.676" fill="#ffd9b3"/>
  <g clip-path="url(#J)" opacity=".6"><path d="m622.986 484.11-11.933-6.9c-.428-.248-.775-.859-.775-1.367 0-.509.347-.721.775-.473l11.933 6.901c.429.244.774.859.774 1.366s-.345.719-.774.473" fill="#fff"/></g>
  <g clip-path="url(#K)" opacity=".3"><path d="m619.154 486.607-8.101-4.689c-.428-.248-.775-.861-.775-1.366 0-.509.347-.721.775-.476l8.101 4.688c.426.248.774.858.774 1.367 0 .508-.348.72-.774.476" fill="#fff"/></g><path d="m603.532 479.042-6.64-3.833c-.529-.306-.958-1.104-.958-1.785v-6.996c0-.679.429-.983.958-.676l6.64 3.831c.53.307.961 1.104.961 1.786v6.995c0 .68-.431.984-.961.678" fill="#ffd9b3"/>
  <g clip-path="url(#L)" opacity=".6"><path d="m623.507 499.365-13.191-7.619c.128-.286.537-.416.933-.179l11.737 6.784c.478.262.598.687.521 1.014" fill="#fff"/></g><path d="m604.49 487.92v.465l-8.556-4.942v-.464c0-.678.432-.981.96-.675l6.638 3.832c.53.304.958 1.104.958 1.784" fill="#ffd9b3"/>
  <g clip-path="url(#M)" opacity=".6"><path d="m625.006 442.308-27.931-16.127c-.522-.3-.946-1.109-.946-1.805 0-.698.424-1.017.946-.716l27.931 16.126c.522.302.946 1.111.946 1.809 0 .695-.424 1.015-.946.713" fill="#fff"/></g><path d="m596.131 419.335 30.313 17.502-.349-9.633-30.316-17.504z" fill="url(#N)"/><path
    d="m626.365 433.815-.031-.035.113 3.057-30.316-17.502-.048-1.334 2.546-.636.425-.105 1.4 2.062.552-.133.784.069.03.003 2.292 2.661.112.129 2.558-.449h.002.003l1.05.73 3.077 3.405.002-.002 1.517-.951 1.712-1.517.008.01 1.836 2.811.027.014 1.144.734.021.012 1.895 2.832.023.03 2.864-1.078.033.054 1.945 3.167h.002.735.216l1.44 1.919z"
    fill="#f7527b"/><path d="m614.317 439.604-17.596-10.158c-.327-.189-.59-.694-.59-1.131 0-.435.263-.634.59-.447l17.596 10.161c.327.189.592.692.592 1.129 0 .434-.265.636-.592.446" fill="#fff" opacity=".3"/><path
    d="m136.715 397.456c.538.815 3.95 5.752 3.95 5.752.462.672.536 1.804.168 2.528l-2.969 5.832c-.369.724-1.326 1.33-2.142 1.352l-6.975.19c-.814.023-1.848-.502-2.31-1.176l-3.95-5.751c-.461-.671-.536-1.804-.167-2.528l2.968-5.832c.369-.724 1.327-1.329 2.143-1.352 0 0 6.139-.173 6.974-.19.836-.017 1.773.361 2.31 1.175zm-2.595 2.243s-6.087-.402-6.463 2.103c-.357 2.376 1.376 7.89 1.376 7.89s5.478-1.843 7.189-3.53c1.804-1.778-2.102-6.463-2.102-6.463zm.364 3.446s.758 2.909-.307 2.937c-1.064.029-2.609-.709-2.609-.709zm-3.364-1.715-.086 3.668s-1.505-.814-2.109-1.692c-.603-.877 2.194-1.976 2.195-1.976z"
    fill="#535461"/></svg>
